<?xml version="1.0" encoding="utf-8"?>
<!-- Generator: Adobe Illustrator 17.1.0, SVG Export Plug-In . SVG Version: 6.00 Build 0)  -->
<!DOCTYPE svg PUBLIC "-//W3C//DTD SVG 1.1//EN" "http://www.w3.org/Graphics/SVG/1.1/DTD/svg11.dtd">
<svg version="1.1" id="Calque_1" xmlns="http://www.w3.org/2000/svg" xmlns:xlink="http://www.w3.org/1999/xlink" x="0px" y="0px"
	 viewBox="0 0 319.7 44.6" enable-background="new 0 0 319.7 44.6" xml:space="preserve">
<path fill="#E84041" d="M45,44H22.6v-3.3c-1.6,1.2-3.4,2.1-5.3,2.7c-2,0.6-3.9,0.9-5.6,0.9c-3.3,0-6.1-1.1-8.3-3.2
	C1.1,39,0,36.2,0,32.9c0-3.7,1.4-6.7,4.1-9.1c2.8-2.4,6.4-3.6,10.8-3.6c1.3,0,2.6,0.1,3.9,0.3s2.5,0.4,3.8,0.8c0-1-0.2-2-0.6-2.8
	c-0.4-0.8-1-1.5-1.8-2c-0.8-0.5-1.7-1-2.8-1.2c-1.1-0.3-2.3-0.4-3.7-0.4c-2.2,0-4.2,0.3-6.2,0.8c-1,0.3-2,0.6-3,1.1
	c-1.1,0.4-2.2,1-3.3,1.6V5.2c0.4-0.2,1-0.5,1.7-0.9c0.7-0.3,1.6-0.8,2.7-1.2C6.6,2.6,7.8,2.2,9,1.8c1.2-0.4,2.5-0.7,3.9-1
	c2.8-0.6,6-0.9,9.7-0.9c7.8,0,13.5,1.7,17,5c3.6,3.3,5.3,8.2,5.3,14.5V44z M19.1,35.6c1.4,0,2.5-0.4,3.5-1.2v-6.1
	c-0.8-0.2-1.4-0.4-1.9-0.5c-0.5-0.1-1.1-0.2-1.8-0.2c-1.3,0-2.4,0.3-3.2,1c-0.8,0.7-1.2,1.6-1.2,2.8c0,1.2,0.4,2.2,1.3,3
	C16.7,35.2,17.8,35.6,19.1,35.6z"/>
<path fill="#FFFFFF" d="M50.6,44V15.9h4.3v4.3c1.1-2,2.1-3.3,3-3.9c0.9-0.6,1.9-1,3.1-1c1.6,0,3.2,0.5,4.9,1.5l-1.6,4.4
	c-1.2-0.7-2.3-1-3.5-1c-1,0-2,0.3-2.8,0.9c-0.8,0.6-1.4,1.5-1.8,2.6c-0.5,1.7-0.8,3.5-0.8,5.6V44H50.6z"/>
<path fill="#FFFFFF" d="M86,33.7l4.7,0.6c-0.5,3.2-1.8,5.7-3.9,7.6c-2.1,1.8-4.7,2.7-7.8,2.7c-3.8,0-6.9-1.3-9.3-3.8
	c-2.3-2.5-3.5-6.1-3.5-10.8c0-3,0.5-5.7,1.5-8c1-2.3,2.5-4,4.6-5.1c2.1-1.1,4.3-1.7,6.7-1.7c3,0,5.5,0.8,7.5,2.3
	c1.9,1.5,3.2,3.7,3.7,6.6l-4.6,0.7c-0.4-1.9-1.2-3.3-2.3-4.3s-2.5-1.4-4.1-1.4c-2.4,0-4.3,0.9-5.8,2.6c-1.5,1.7-2.2,4.4-2.2,8.2
	c0,3.8,0.7,6.5,2.2,8.2c1.4,1.7,3.3,2.6,5.7,2.6c1.9,0,3.4-0.6,4.7-1.7C84.9,37.9,85.7,36.1,86,33.7z"/>
<path fill="#FFFFFF" d="M94.7,44V5.2h4.8v13.9c2.2-2.6,5-3.9,8.4-3.9c2.1,0,3.9,0.4,5.4,1.2c1.5,0.8,2.6,2,3.3,3.4
	c0.7,1.4,1,3.5,1,6.3V44h-4.8V26.2c0-2.4-0.5-4.1-1.5-5.2c-1-1.1-2.5-1.6-4.4-1.6c-1.4,0-2.7,0.4-4,1.1c-1.2,0.7-2.1,1.7-2.7,3
	c-0.5,1.3-0.8,3-0.8,5.2V44H94.7z"/>
<path fill="#FFFFFF" d="M124.9,10.7V5.2h4.8v5.5H124.9z M124.9,44V15.9h4.8V44H124.9z"/>
<path fill="#FFFFFF" d="M147.3,39.7L148,44c-1.3,0.3-2.5,0.4-3.6,0.4c-1.7,0-3.1-0.3-4-0.8c-1-0.5-1.6-1.3-2-2.2
	c-0.4-0.9-0.6-2.8-0.6-5.6V19.6h-3.5v-3.7h3.5V9l4.7-2.9v9.8h4.8v3.7h-4.8V36c0,1.4,0.1,2.2,0.3,2.6c0.2,0.4,0.4,0.7,0.8,0.9
	c0.4,0.2,0.9,0.3,1.6,0.3C145.7,39.9,146.4,39.9,147.3,39.7z"/>
<path fill="#FFFFFF" d="M171.1,35l4.9,0.6c-0.8,2.9-2.2,5.1-4.3,6.7c-2.1,1.6-4.8,2.4-8,2.4c-4.1,0-7.4-1.3-9.8-3.8
	c-2.4-2.5-3.6-6.1-3.6-10.6c0-4.7,1.2-8.4,3.6-11c2.4-2.6,5.6-3.9,9.5-3.9c3.8,0,6.8,1.3,9.2,3.8c2.4,2.6,3.6,6.2,3.6,10.8
	c0,0.3,0,0.7,0,1.3h-20.9c0.2,3.1,1,5.4,2.6,7.1c1.6,1.6,3.5,2.5,5.9,2.5c1.7,0,3.2-0.5,4.5-1.4C169.4,38.4,170.4,37,171.1,35z
	 M155.5,27.3h15.7c-0.2-2.4-0.8-4.1-1.8-5.3c-1.5-1.8-3.5-2.7-5.9-2.7c-2.2,0-4,0.7-5.5,2.2C156.5,22.9,155.7,24.8,155.5,27.3z"/>
<path fill="#FFFFFF" d="M200.4,33.7l4.7,0.6c-0.5,3.2-1.8,5.7-3.9,7.6c-2.1,1.8-4.7,2.7-7.8,2.7c-3.8,0-6.9-1.3-9.3-3.8
	c-2.3-2.5-3.5-6.1-3.5-10.8c0-3,0.5-5.7,1.5-8c1-2.3,2.5-4,4.6-5.1c2.1-1.1,4.3-1.7,6.7-1.7c3,0,5.5,0.8,7.5,2.3
	c1.9,1.5,3.2,3.7,3.7,6.6l-4.6,0.7c-0.4-1.9-1.2-3.3-2.3-4.3c-1.1-1-2.5-1.4-4.1-1.4c-2.4,0-4.3,0.9-5.8,2.6s-2.2,4.4-2.2,8.2
	c0,3.8,0.7,6.5,2.2,8.2c1.4,1.7,3.3,2.6,5.7,2.6c1.9,0,3.4-0.6,4.7-1.7C199.2,37.9,200,36.1,200.4,33.7z"/>
<path fill="#FFFFFF" d="M220.5,39.7l0.7,4.2c-1.3,0.3-2.5,0.4-3.6,0.4c-1.7,0-3.1-0.3-4-0.8c-1-0.5-1.6-1.3-2-2.2
	c-0.4-0.9-0.6-2.8-0.6-5.6V19.6h-3.5v-3.7h3.5V9l4.7-2.9v9.8h4.8v3.7h-4.8V36c0,1.4,0.1,2.2,0.3,2.6c0.2,0.4,0.4,0.7,0.8,0.9
	c0.4,0.2,0.9,0.3,1.6,0.3C218.9,39.9,219.6,39.9,220.5,39.7z"/>
<path fill="#FFFFFF" d="M223.4,30c0-5.2,1.4-9,4.3-11.6c2.4-2.1,5.4-3.1,8.8-3.1c3.9,0,7,1.3,9.5,3.8c2.4,2.5,3.7,6,3.7,10.5
	c0,3.6-0.5,6.5-1.6,8.5s-2.7,3.7-4.7,4.8c-2.1,1.1-4.3,1.7-6.8,1.7c-3.9,0-7.1-1.3-9.5-3.8C224.6,38.3,223.4,34.7,223.4,30z
	 M228.3,30c0,3.6,0.8,6.3,2.4,8.1c1.6,1.8,3.5,2.7,5.9,2.7c2.4,0,4.3-0.9,5.9-2.7c1.6-1.8,2.4-4.5,2.4-8.2c0-3.5-0.8-6.1-2.4-7.9
	c-1.6-1.8-3.5-2.7-5.9-2.7c-2.4,0-4.4,0.9-5.9,2.7C229,23.7,228.3,26.4,228.3,30z"/>
<path fill="#FFFFFF" d="M254.3,44V15.9h4.3v4c2.1-3.1,5-4.6,8.9-4.6c1.7,0,3.2,0.3,4.7,0.9c1.4,0.6,2.5,1.4,3.2,2.4
	c0.7,1,1.2,2.2,1.5,3.5c0.2,0.9,0.3,2.4,0.3,4.6V44h-4.8V26.9c0-1.9-0.2-3.4-0.6-4.3c-0.4-1-1-1.7-2-2.3c-0.9-0.6-2-0.9-3.3-0.9
	c-2,0-3.8,0.6-5.2,1.9c-1.5,1.3-2.2,3.7-2.2,7.3V44H254.3z"/>
<path fill="#FFFFFF" d="M284.4,10.7V5.2h4.8v5.5H284.4z M284.4,44V15.9h4.8V44H284.4z"/>
<path fill="#FFFFFF" d="M296.4,44V5.2h4.8v22.1l11.3-11.4h6.2l-10.7,10.4L319.7,44h-5.9l-9.3-14.4l-3.4,3.2V44H296.4z"/>
</svg>
